<svg xmlns="http://www.w3.org/2000/svg" width="24" height="24" viewBox="0 0 24 24"><style>.s0{fill:#f1ea1d}.s2{fill:#050505}</style><g id="Layer 1"><path id="&lt;Compound Path&gt;" d="M17.44 7.41c-.24-.54-.42-1.09-.45-1.69-.04-.7-.26-1.34-.72-1.87-.47-.54-.93-.62-1.54-.25q-.46.29-.92.56c-.12.07-.26.09-.4.13q-.02-.06-.05-.11c.59-.51 1.22-.96 2.05-1.1q-.07-.1-.1-.14-1.17-1.19-2.73-1.76c-.29-.11-.69-.11-.99-.01-1.04.32-1.81 1.02-2.48 1.85-.17.21-.11.3.12.42q.68.35 1.34.73.08.06.14.15-.02.04-.03.08c-.1-.02-.21-.02-.3-.06L9.2 3.7c-.23-.12-.47-.29-.73-.11-.54.38-1.02.83-1.02 1.55 0 .81-.19 1.55-.56 2.28-.46.92-.36 1.86.17 2.74.17.28.28.27.46 0 .25-.38.49-.79.79-1.14q.68-.77 1.41-1.5c.12-.13.3-.19.46-.29q.03.05.06.09l-.26.3q-.51.51-.99 1.05c-.22.24-.36.53-.15.85.06.11.18.19.28.28q.09-.16.19-.32c.09-.13.16-.27.27-.37q.21-.19.46-.34.2-.13.4-.25.09-.04.17-.08.4-.26.82-.52.05-.02.1-.01c.26.07.52.11.78-.03.03-.02.11.01.15.03q.6.36 1.2.74c.12.07.21.17.34.22.28.12.45.31.47.64 0 .1.13.24.24.28.07.03.22-.05.29-.12.36-.34.42-.86.14-1.29q-.2-.3-.45-.57-.25-.3-.49-.6c-.03-.03-.01-.11-.01-.16.06 0 .14-.03.17 0q.21.15.39.33c.75.78 1.46 1.59 2.03 2.52q.22.36.47.01.07-.08.12-.18c.31-.76.41-1.54.07-2.32m-7.68-.85q-.23.01-.46.01c-.49-.01-.96.02-1.36.37-.06.05-.15.07-.29.12.05-.11.06-.17.09-.21.27-.25.27-.54.16-.86-.16-.52-.04-.96.3-1.37.2-.25.4-.34.71-.22.23.09.44.23.65.35.33.2.65.41.99.58.29.14.57.1.8-.17.11-.12.25-.21.37-.32q.04.04.07.08-.15.2-.31.39-.4.43-.81.86-.38.37-.91.39m3.11-.04c-.09.03-.23-.02-.32-.08-.08-.06-.1-.19-.16-.28q-.23-.39-.48 0c-.06.08-.09.21-.17.26-.1.07-.28.14-.36.1-.09-.05-.18-.28-.14-.34q.39-.53.84-1.02c.04-.05.24-.04.28.01q.37.47.71.96.02.05.04.19c-.06.06-.14.18-.24.2m3.79.44c-.15-.09-.32-.15-.44-.26-.2-.18-.42-.23-.67-.23q-.52.02-1.04-.02c-.21-.01-.44-.05-.61-.16-.57-.38-.99-.92-1.38-1.46q.03-.05.07-.09.17.11.32.24c.32.32.6.39 1.01.19.33-.16.63-.38.94-.57q.2-.13.41-.25c.41-.23.67-.16.92.25.23.38.34.82.21 1.25-.12.38-.07.66.22.91q.05.06.09.13-.03.03-.05.07" class="s0"/><path d="M16.07 10.2q-.21-.16-.32.09-.09.25-.15.51c-.12.47-.2.95-.35 1.4-.14.43-.46.48-.82.22-.16-.11-.34-.18-.51-.28q-.11-.08-.2-.19-.07-.03-.14-.05-.21-.07-.41-.15-.32-.13-.25-.47.05-.21.05-.43-.01-.24-.27-.2c-.13.01-.27-.03-.4-.03q-.19-.01-.35.05c-.04.01-.02.17 0 .26q.07.27.16.56c-.24.02-.44.02-.63.06-.83.17-1.63.45-2.3 1.01q-.26.22-.51.03a.54.54 0 0 1-.2-.36q-.02-.64-.02-1.28c-.01-.14-.03-.28-.05-.49-.18.12-.32.2-.44.29-.15.11-.26.25-.41.35-.29.18-.36.43-.35.75.02.7.06 1.4.01 2.09-.04.53.13.89.51 1.21.51.44.75.48 1.32.13.4-.25.82-.5 1.17-.81.86-.74 2.71-.78 3.6-.06q.58.46 1.21.84c.38.24.78.2 1.16-.06.36-.23.44-.56.39-.97q-.07-.59-.02-1.18c.05-.6.15-1.2.2-1.81.01-.17.01-.4-.09-.53-.15-.2-.39-.34-.59-.5m-3.42 1.41c-.12-.06-.25-.1-.34-.19-.03-.02.05-.17.09-.26h.09q.11.19.23.38-.04.03-.07.07" class="s0"/><path id="&lt;Path&gt;" d="M13.72 11.95v-.01h-.01q.01 0 .01.01v-.01h-.01q.01 0 .01.01" class="s0"/><path d="M14.27 10.21c.17-.48.1-.79-.21-.99l-.28.28q-.01-.14-.03-.21-.07-.22-.17-.43c0-.01-.15.01-.16.04q-.05.24-.09.5 0 .04.03.07c.25.31.59.5.91.74M10.97 10.74c-.24-.08-.28.04-.31.22q-.07.37.3.55c.14-.41.41-.21.68-.09q.05-.28.08-.5c.03-.33-.08-.4-.39-.29-.12.05-.26.14-.36.11M9.59 11.81c0 .07.11.12.17.18q.09-.11.2-.2c.08-.05.18-.11.25-.09.16.06.24-.02.29-.15.08-.22.06-.43-.11-.61-.25.17-.5.32-.72.51-.08.07-.09.24-.08.36M11.54 9.2c.23.03.32-.09.3-.29q-.05-.29-.14-.57c-.03-.08-.11-.14-.17-.2-.06.06-.16.12-.19.2q-.1.4-.18.86c.17 0 .28-.01.38 0M14.09 11.81l.02-.02q.01-.02.02-.05.01-.01.01-.04c.05-.16-.15-.37-.36-.45q-.16-.07-.28-.22c-.1-.11-.23-.16-.28-.03a.84.84 0 0 0 0 .52c.05.19.2.05.3.02q.06-.02.16-.03.02.18.03.33.01.05.01.1c.15 0 .29-.02.37-.13M12.38 9.16c.22-.02.24-.16.24-.34-.03-.17-.04-.36-.1-.52-.03-.08-.16-.16-.25-.16-.07 0-.18.12-.19.2-.03.17-.01.35-.01.53q-.02.31.31.29M10.75 8.54c-.1.02-.16.25-.24.39l.06.04q.01.16.03.32c.02.21.12.23.29.14.23-.13.21-.33.14-.52-.06-.15-.03-.42-.28-.37M10.23 9.8q.04-.02.07-.05.02-.02.04-.05l.02-.06c.05-.18.04-.39-.01-.57-.07-.19-.26-.19-.32.01-.06.23-.06.49-.09.73q.06.01.13.01h.08zM13.08 9.28c.03-.07.1-.15.09-.22-.04-.21-.11-.41-.19-.67-.23.28-.28.58-.14.76.06.06.16.09.24.13M9.6 9.41c-.08.02-.15.1-.2.17-.03.06-.01.14-.02.19q0 .11.02.18c.03.08.1.21.13.21.1-.03.25-.09.27-.16.03-.14 0-.3-.03-.44-.02-.06-.12-.16-.17-.15" class="s0"/><path d="M4.05 20.8c.85.37 1.67.8 2.51 1.19q1.44.68 2.97 1.16c1.18.35 2.38.41 3.58.3 1.83-.17 3.45-.94 5.04-1.79.73-.4 1.46-.8 2.22-1.12.57-.24 1.18-.4 1.79-.05.05.03.17.02.21-.02s.01-.15 0-.22q-.03-.07-.08-.13c-.27-.35-.57-.67-.79-1.04-.29-.48-.6-.98-.72-1.51-.17-.7-.18-1.45-.23-2.18-.11-1.44-.22-2.89-.6-4.29-.29-1.09-.58-2.19-.96-3.25q-.6-1.67-1.58-3.15-.07-.1-.16-.18l-.04-.08c-.32-.43-1.53-1.98-1.58-2.01q-.35-.33-.76-.64-.02-.02-.05-.04c-.66-.49-1.35-.9-1.79-1.14-.34-.19-.76-.34-1.16-.2q-.52.17-.99.47c-1.23.8-2.33 1.77-3.42 2.75-.62.55-1.03 1.27-1.36 2.03-.35.81-.7 1.62-1 2.45q-.4 1.14-.69 2.31-.55 2.22-1.05 4.45c-.3 1.35-.46 2.74-1.02 4.02-.04.09-.03.21-.05.32q.03.02.06.03.26-.19.51-.39.03.03.06.07-.08.1-.16.19-.55.53-1.08 1.08c-.09.09-.13.22-.23.39.33-.09.57-.19.82-.21.63-.06 1.22.18 1.78.43m1.53-8.65c.19-.96.33-1.93.53-2.9.17-.79.39-1.57.58-2.36.11-.46.27-.91.32-1.38q.12-1.16.95-1.95c.96-.95 1.9-1.91 3.08-2.59.64-.37 1.27-.46 1.93-.1.61.33 1.2.72 1.81 1.07.04.02 2.02 2.13 2.32 2.58q.11.17.15.37.03.14.06.25.2.94.42 1.88c.11.42.29.83.37 1.25.11.62.15 1.24.22 1.86.17 1.6.3 3.21.23 4.82q-.04 1.09-.49 2.1-.59 1.25-1.56 2.25c-.84.89-1.82 1.6-2.85 2.25q-.46.28-.99.58c.3.14.61-.06.88.19-.15.07-.24.13-.35.15-.65.14-1.29.08-1.93-.11-1.33-.4-2.41-1.21-3.34-2.2-.66-.71-1.26-1.47-1.86-2.24-.38-.49-.73-1.03-.76-1.69q-.1-2.05.28-4.08" style="fill:#632c8a"/><path d="M18.32 10.13c-.07-.62-.11-1.24-.22-1.86-.08-.42-.26-.83-.37-1.25q-.22-.94-.42-1.88-.03-.13-.06-.25-.04-.2-.15-.37c-.3-.45-2.28-2.56-2.32-2.58-.61-.35-1.2-.74-1.81-1.07-.66-.36-1.29-.27-1.93.1-1.18.68-2.12 1.64-3.08 2.59q-.83.79-.95 1.95c-.05.47-.21.92-.32 1.38-.19.79-.41 1.57-.58 2.36-.2.97-.34 1.94-.53 2.9q-.38 2.03-.28 4.08c.03.66.38 1.2.76 1.69.6.77 1.2 1.53 1.86 2.24.93.99 2.01 1.8 3.34 2.2.64.19 1.28.25 1.93.11.11-.02.2-.08.35-.15-.27-.25-.58-.05-.88-.19q.53-.3.99-.58c1.03-.65 2.01-1.36 2.85-2.25q.97-1 1.56-2.25.45-1.01.49-2.1c.07-1.61-.06-3.22-.23-4.82m-1.57 1.1c-.05.61-.15 1.21-.2 1.81q-.05.59.02 1.18c.05.41-.03.74-.39.97-.38.26-.78.3-1.16.06q-.63-.38-1.21-.84c-.89-.72-2.74-.68-3.6.06-.35.31-.77.56-1.17.81-.57.35-.81.31-1.32-.13-.38-.32-.55-.68-.51-1.21.05-.69.01-1.39-.01-2.09-.01-.32.06-.57.35-.75.15-.1.26-.24.41-.35.12-.09.26-.17.44-.29.02.21.04.35.05.49q0 .64.02 1.28c.01.13.1.29.2.36q.25.19.51-.03c.67-.56 1.47-.84 2.3-1.01.19-.04.39-.04.63-.06q-.09-.29-.16-.56c-.02-.09-.04-.25 0-.26q.16-.06.35-.05c.13 0 .27.04.4.03q.26-.04.27.2 0 .22-.05.43-.07.34.25.47.2.08.41.15.07.02.14.05 0-.01-.01-.01h.01v.01q0-.01-.01-.01h.01q0-.05-.01-.1-.01-.15-.03-.33-.1.01-.16.03c-.1.03-.25.17-.3-.02a.84.84 0 0 1 0-.52c.05-.13.18-.08.28.03q.12.15.28.22c.21.08.41.29.36.45q0 .03-.01.04c-.07.18-.24.2-.41.2v.01q.09.11.2.19c.17.1.35.17.51.28.36.26.68.21.82-.22.15-.45.23-.93.35-1.4q.06-.26.15-.51.11-.25.32-.09c.2.16.44.3.59.5.1.13.1.36.09.53m-6.36-.29c.17.18.19.39.11.61-.05.13-.13.21-.29.15-.07-.02-.17.04-.25.09q-.11.09-.2.2c-.06-.06-.17-.11-.17-.18-.01-.12 0-.29.08-.36.22-.19.47-.34.72-.51m6.98-1.21q-.05.1-.12.18-.25.35-.47-.01c-.57-.93-1.28-1.74-2.03-2.52q-.18-.18-.39-.33c-.03-.03-.11 0-.17 0 0 .05-.02.13.01.16q.24.3.49.6.25.27.45.57c.28.43.22.95-.14 1.29-.07.07-.22.15-.29.12-.11-.04-.24-.18-.24-.28-.02-.33-.19-.52-.47-.64-.13-.05-.22-.15-.34-.22q-.6-.38-1.2-.74c-.04-.02-.12-.05-.15-.03-.26.14-.52.1-.78.03q-.05-.01-.1.01-.42.26-.82.52-.08.04-.17.08-.2.12-.4.25-.25.15-.46.34c-.11.1-.18.24-.27.37q-.1.16-.19.32c-.1-.09-.22-.17-.28-.28-.21-.32-.07-.61.15-.85q.48-.54.99-1.05l.26-.3q-.03-.04-.06-.09c-.16.1-.34.16-.46.29q-.73.73-1.41 1.5c-.3.35-.54.76-.79 1.14-.18.27-.29.28-.46 0-.53-.88-.63-1.82-.17-2.74.37-.73.56-1.47.56-2.28 0-.72.48-1.17 1.02-1.55.26-.18.5-.01.73.11l1.18.64c.09.04.2.04.3.06q.01-.04.03-.08-.06-.09-.14-.15-.66-.38-1.34-.73c-.23-.12-.29-.21-.12-.42.67-.83 1.44-1.53 2.48-1.85.3-.1.7-.1.99.01q1.56.57 2.73 1.76.03.04.1.14c-.83.14-1.46.59-2.05 1.1q.03.05.05.11c.14-.04.28-.06.4-.13q.46-.27.92-.56c.61-.37 1.07-.29 1.54.25.46.53.68 1.17.72 1.87.03.6.21 1.15.45 1.69.34.78.24 1.56-.07 2.32m-6.04.9c.31-.11.42-.04.39.29q-.03.22-.08.5c-.27-.12-.54-.32-.68.09q-.37-.18-.3-.55c.03-.18.07-.3.31-.22.1.03.24-.06.36-.11m-.17-1.43q.08-.46.18-.86c.03-.08.13-.14.19-.2.06.06.14.12.17.2q.09.28.14.57c.02.2-.07.32-.3.29-.1-.01-.21 0-.38 0m-.27.23c-.17.09-.27.07-.29-.14q-.02-.16-.03-.32l-.06-.04c.08-.14.14-.37.24-.39.25-.05.22.22.28.37.07.19.09.39-.14.52M9.8 10c-.02.07-.17.13-.27.16-.03 0-.1-.13-.13-.21q-.02-.07-.02-.18c.01-.05-.01-.13.02-.19.05-.07.12-.15.2-.17.05-.01.15.09.17.15.03.14.06.3.03.44m2.28-1.66c.01-.08.12-.2.19-.2.09 0 .22.08.25.16.06.16.07.35.1.52 0 .18-.02.32-.24.34q-.33.02-.31-.29c0-.18-.02-.36.01-.53m.9.05c.08.26.15.46.19.67.01.07-.06.15-.09.22-.08-.04-.18-.07-.24-.13-.14-.18-.09-.48.14-.76m.35 1.01q.04-.26.09-.5c.01-.03.16-.05.16-.04q.1.21.17.43.02.07.03.21l.28-.28c.31.2.38.51.21.99-.32-.24-.66-.43-.91-.74q-.03-.03-.03-.07m-3.39.41c.03-.24.03-.5.09-.73.06-.2.25-.2.32-.01.05.18.06.39.01.57l-.02.06q-.02.03-.04.05-.03.03-.07.05-.07.02-.16.02-.07 0-.13-.01" class="s2"/><path d="M11.79 4.92q-.03-.04-.07-.08c-.12.11-.26.2-.37.32-.23.27-.51.31-.8.17-.34-.17-.66-.38-.99-.58-.21-.12-.42-.26-.65-.35-.31-.12-.51-.03-.71.22-.34.41-.46.85-.3 1.37.11.32.11.61-.16.86-.03.04-.04.1-.09.21.14-.05.23-.07.29-.12.4-.35.87-.38 1.36-.37q.23 0 .46-.01.53-.02.91-.39.41-.43.81-.86.16-.19.31-.39M16.4 5.85c.13-.43.02-.87-.21-1.25-.25-.41-.51-.48-.92-.25q-.21.12-.41.25c-.31.19-.61.41-.94.57-.41.2-.69.13-1.01-.19q-.15-.13-.32-.24-.04.04-.07.09c.39.54.81 1.08 1.38 1.46.17.11.4.15.61.16q.52.04 1.04.02c.25 0 .47.05.67.23.12.11.29.17.44.26q.02-.04.05-.07-.04-.07-.09-.13c-.29-.25-.34-.53-.22-.91M12.36 5.17c-.04-.05-.24-.06-.28-.01q-.45.49-.84 1.02c-.04.06.05.29.14.34.08.04.26-.03.36-.1.08-.05.11-.18.17-.26q.25-.39.48 0c.06.09.08.22.16.28.09.06.23.11.32.08.1-.02.18-.14.24-.2q-.02-.14-.04-.19-.34-.49-.71-.96M12.4 11.16c-.04.09-.12.24-.09.26.09.09.22.13.34.19q.03-.04.07-.07-.12-.19-.23-.38z" class="s2"/></g></svg>